<mxfile host="app.diagrams.net" agent="Mozilla/5.0 (Macintosh; Intel Mac OS X 10_15_7) AppleWebKit/537.36 (KHTML, like Gecko) Chrome/136.0.0.0 Safari/537.36 Edg/136.0.0.0" version="28.0.4">
  <diagram name="第 1 页" id="AakxzxNk4qRJuxVSF_od">
    <mxGraphModel dx="1394" dy="889" grid="1" gridSize="10" guides="1" tooltips="1" connect="1" arrows="1" fold="1" page="1" pageScale="1" pageWidth="413" pageHeight="583" math="0" shadow="0">
      <root>
        <mxCell id="0" />
        <mxCell id="1" parent="0" />
        <mxCell id="hh_eeiNxdKhzFimPqXk4-7" value="" style="rounded=0;whiteSpace=wrap;html=1;strokeWidth=2;" vertex="1" parent="1">
          <mxGeometry x="130" y="136" width="660" height="290" as="geometry" />
        </mxCell>
        <mxCell id="hh_eeiNxdKhzFimPqXk4-4" value="" style="endArrow=classic;startArrow=classic;html=1;rounded=0;exitX=0.5;exitY=1;exitDx=0;exitDy=0;strokeWidth=2;" edge="1" parent="1" source="hh_eeiNxdKhzFimPqXk4-2">
          <mxGeometry width="50" height="50" relative="1" as="geometry">
            <mxPoint x="480" y="76" as="sourcePoint" />
            <mxPoint x="220" y="296" as="targetPoint" />
          </mxGeometry>
        </mxCell>
        <mxCell id="hh_eeiNxdKhzFimPqXk4-5" value="" style="endArrow=none;html=1;rounded=0;strokeWidth=2;exitX=0.015;exitY=0.545;exitDx=0;exitDy=0;exitPerimeter=0;entryX=0.955;entryY=0.545;entryDx=0;entryDy=0;entryPerimeter=0;" edge="1" parent="1" source="hh_eeiNxdKhzFimPqXk4-7" target="hh_eeiNxdKhzFimPqXk4-7">
          <mxGeometry width="50" height="50" relative="1" as="geometry">
            <mxPoint x="240" y="294" as="sourcePoint" />
            <mxPoint x="750" y="294" as="targetPoint" />
          </mxGeometry>
        </mxCell>
        <mxCell id="hh_eeiNxdKhzFimPqXk4-6" value="&lt;font style=&quot;font-size: 20px;&quot;&gt;&lt;b&gt;总线&lt;/b&gt;&lt;/font&gt;" style="text;html=1;align=center;verticalAlign=middle;resizable=0;points=[];autosize=1;strokeColor=none;fillColor=none;" vertex="1" parent="1">
          <mxGeometry x="720" y="246" width="60" height="40" as="geometry" />
        </mxCell>
        <mxCell id="hh_eeiNxdKhzFimPqXk4-8" value="" style="group" vertex="1" connectable="0" parent="1">
          <mxGeometry x="180" y="156" width="110" height="90" as="geometry" />
        </mxCell>
        <mxCell id="hh_eeiNxdKhzFimPqXk4-3" value="" style="whiteSpace=wrap;html=1;aspect=fixed;strokeWidth=2;fillColor=#fad7ac;strokeColor=light-dark(#000000, #c98531);" vertex="1" parent="hh_eeiNxdKhzFimPqXk4-8">
          <mxGeometry x="10" width="80" height="80" as="geometry" />
        </mxCell>
        <mxCell id="hh_eeiNxdKhzFimPqXk4-2" value="&lt;font style=&quot;font-size: 20px;&quot;&gt;NPU&lt;/font&gt;" style="whiteSpace=wrap;html=1;aspect=fixed;fillColor=#fad7ac;strokeColor=#000000;strokeWidth=2;" vertex="1" parent="hh_eeiNxdKhzFimPqXk4-8">
          <mxGeometry y="10" width="80" height="80" as="geometry" />
        </mxCell>
        <mxCell id="hh_eeiNxdKhzFimPqXk4-38" value="" style="ellipse;whiteSpace=wrap;html=1;fillColor=#99FF33;strokeColor=light-dark(#99ff33, #babdc0);" vertex="1" parent="hh_eeiNxdKhzFimPqXk4-8">
          <mxGeometry x="35" y="5" width="10" height="10" as="geometry" />
        </mxCell>
        <mxCell id="hh_eeiNxdKhzFimPqXk4-9" value="&lt;font style=&quot;font-size: 20px;&quot;&gt;任务调度器&lt;/font&gt;" style="whiteSpace=wrap;html=1;aspect=fixed;fillColor=#fad9d5;strokeColor=light-dark(#000000, #ec8f82);strokeWidth=2;" vertex="1" parent="1">
          <mxGeometry x="325" y="166" width="80" height="80" as="geometry" />
        </mxCell>
        <mxCell id="hh_eeiNxdKhzFimPqXk4-10" value="" style="endArrow=classic;startArrow=classic;html=1;rounded=0;strokeWidth=2;exitX=0.5;exitY=1;exitDx=0;exitDy=0;" edge="1" parent="1" source="hh_eeiNxdKhzFimPqXk4-9">
          <mxGeometry width="50" height="50" relative="1" as="geometry">
            <mxPoint x="265" y="274" as="sourcePoint" />
            <mxPoint x="365" y="294" as="targetPoint" />
          </mxGeometry>
        </mxCell>
        <mxCell id="hh_eeiNxdKhzFimPqXk4-11" value="" style="endArrow=classic;startArrow=classic;html=1;rounded=0;strokeWidth=2;entryX=0.5;entryY=0;entryDx=0;entryDy=0;" edge="1" parent="1" target="hh_eeiNxdKhzFimPqXk4-12">
          <mxGeometry width="50" height="50" relative="1" as="geometry">
            <mxPoint x="270" y="294" as="sourcePoint" />
            <mxPoint x="270" y="334" as="targetPoint" />
          </mxGeometry>
        </mxCell>
        <mxCell id="hh_eeiNxdKhzFimPqXk4-12" value="&lt;font style=&quot;font-size: 20px;&quot;&gt;空口信号预处理模块&lt;/font&gt;" style="whiteSpace=wrap;html=1;strokeWidth=2;" vertex="1" parent="1">
          <mxGeometry x="210" y="336" width="120" height="60" as="geometry" />
        </mxCell>
        <mxCell id="hh_eeiNxdKhzFimPqXk4-13" value="&lt;font style=&quot;font-size: 20px;&quot;&gt;控制CPU&lt;/font&gt;" style="whiteSpace=wrap;html=1;aspect=fixed;fillColor=#fad9d5;strokeColor=light-dark(#000000, #ec8f82);strokeWidth=2;" vertex="1" parent="1">
          <mxGeometry x="450" y="166" width="80" height="80" as="geometry" />
        </mxCell>
        <mxCell id="hh_eeiNxdKhzFimPqXk4-14" value="" style="endArrow=classic;startArrow=classic;html=1;rounded=0;strokeWidth=2;exitX=0.5;exitY=1;exitDx=0;exitDy=0;" edge="1" parent="1" source="hh_eeiNxdKhzFimPqXk4-13">
          <mxGeometry width="50" height="50" relative="1" as="geometry">
            <mxPoint x="410" y="266" as="sourcePoint" />
            <mxPoint x="490" y="296" as="targetPoint" />
          </mxGeometry>
        </mxCell>
        <mxCell id="hh_eeiNxdKhzFimPqXk4-15" value="" style="endArrow=classic;startArrow=classic;html=1;rounded=0;strokeWidth=2;" edge="1" parent="1">
          <mxGeometry width="50" height="50" relative="1" as="geometry">
            <mxPoint x="510" y="294" as="sourcePoint" />
            <mxPoint x="510" y="474" as="targetPoint" />
          </mxGeometry>
        </mxCell>
        <mxCell id="hh_eeiNxdKhzFimPqXk4-16" value="&lt;font style=&quot;font-size: 20px;&quot;&gt;DDR/HBM接口&lt;/font&gt;" style="text;html=1;align=center;verticalAlign=middle;resizable=0;points=[];autosize=1;strokeColor=none;fillColor=none;" vertex="1" parent="1">
          <mxGeometry x="430" y="477" width="160" height="40" as="geometry" />
        </mxCell>
        <mxCell id="hh_eeiNxdKhzFimPqXk4-17" value="" style="endArrow=classic;startArrow=classic;html=1;rounded=0;strokeWidth=2;entryX=0.5;entryY=0;entryDx=0;entryDy=0;" edge="1" parent="1" target="hh_eeiNxdKhzFimPqXk4-18">
          <mxGeometry width="50" height="50" relative="1" as="geometry">
            <mxPoint x="419.88" y="294" as="sourcePoint" />
            <mxPoint x="419.88" y="334" as="targetPoint" />
          </mxGeometry>
        </mxCell>
        <mxCell id="hh_eeiNxdKhzFimPqXk4-18" value="&lt;font style=&quot;font-size: 20px;&quot;&gt;内存&lt;/font&gt;" style="whiteSpace=wrap;html=1;strokeWidth=2;" vertex="1" parent="1">
          <mxGeometry x="360" y="336" width="120" height="60" as="geometry" />
        </mxCell>
        <mxCell id="hh_eeiNxdKhzFimPqXk4-21" value="" style="endArrow=classic;startArrow=classic;html=1;rounded=0;strokeWidth=2;entryX=0.5;entryY=1.01;entryDx=0;entryDy=0;entryPerimeter=0;" edge="1" parent="1" target="hh_eeiNxdKhzFimPqXk4-22">
          <mxGeometry width="50" height="50" relative="1" as="geometry">
            <mxPoint x="580" y="296" as="sourcePoint" />
            <mxPoint x="580" y="96" as="targetPoint" />
          </mxGeometry>
        </mxCell>
        <mxCell id="hh_eeiNxdKhzFimPqXk4-22" value="&lt;font style=&quot;font-size: 20px;&quot;&gt;USB&lt;/font&gt;&lt;div&gt;&lt;font style=&quot;font-size: 20px;&quot;&gt;接口&lt;/font&gt;&lt;/div&gt;" style="text;html=1;align=center;verticalAlign=middle;resizable=0;points=[];autosize=1;strokeColor=none;fillColor=none;" vertex="1" parent="1">
          <mxGeometry x="550" y="51" width="60" height="60" as="geometry" />
        </mxCell>
        <mxCell id="hh_eeiNxdKhzFimPqXk4-24" value="" style="endArrow=classic;startArrow=classic;html=1;rounded=0;strokeWidth=2;entryX=0.5;entryY=1.01;entryDx=0;entryDy=0;entryPerimeter=0;" edge="1" parent="1" target="hh_eeiNxdKhzFimPqXk4-25">
          <mxGeometry width="50" height="50" relative="1" as="geometry">
            <mxPoint x="630" y="296" as="sourcePoint" />
            <mxPoint x="630" y="96" as="targetPoint" />
          </mxGeometry>
        </mxCell>
        <mxCell id="hh_eeiNxdKhzFimPqXk4-25" value="&lt;span style=&quot;font-size: 20px;&quot;&gt;网卡&lt;/span&gt;" style="text;html=1;align=center;verticalAlign=middle;resizable=0;points=[];autosize=1;strokeColor=none;fillColor=none;" vertex="1" parent="1">
          <mxGeometry x="600" y="70" width="60" height="40" as="geometry" />
        </mxCell>
        <mxCell id="hh_eeiNxdKhzFimPqXk4-26" value="" style="endArrow=classic;startArrow=classic;html=1;rounded=0;strokeWidth=2;entryX=0.5;entryY=1.01;entryDx=0;entryDy=0;entryPerimeter=0;" edge="1" parent="1" target="hh_eeiNxdKhzFimPqXk4-27">
          <mxGeometry width="50" height="50" relative="1" as="geometry">
            <mxPoint x="680" y="296" as="sourcePoint" />
            <mxPoint x="680" y="96" as="targetPoint" />
          </mxGeometry>
        </mxCell>
        <mxCell id="hh_eeiNxdKhzFimPqXk4-27" value="&lt;span style=&quot;font-size: 20px;&quot;&gt;PCle&lt;/span&gt;&lt;div&gt;&lt;span style=&quot;font-size: 20px;&quot;&gt;接口&lt;/span&gt;&lt;/div&gt;" style="text;html=1;align=center;verticalAlign=middle;resizable=0;points=[];autosize=1;strokeColor=none;fillColor=none;" vertex="1" parent="1">
          <mxGeometry x="645" y="51" width="70" height="60" as="geometry" />
        </mxCell>
        <mxCell id="hh_eeiNxdKhzFimPqXk4-29" value="&lt;font style=&quot;font-size: 20px;&quot;&gt;AI处理器&lt;/font&gt;" style="text;html=1;align=center;verticalAlign=middle;resizable=0;points=[];autosize=1;strokeColor=none;fillColor=none;" vertex="1" parent="1">
          <mxGeometry x="680" y="366" width="100" height="40" as="geometry" />
        </mxCell>
        <mxCell id="hh_eeiNxdKhzFimPqXk4-30" value="" style="endArrow=none;html=1;rounded=0;strokeColor=light-dark(#99ff33, #babdc0);strokeWidth=2;entryX=1;entryY=0.5;entryDx=0;entryDy=0;fillColor=#cdeb8b;" edge="1" parent="1" target="hh_eeiNxdKhzFimPqXk4-32">
          <mxGeometry width="50" height="50" relative="1" as="geometry">
            <mxPoint x="220" y="166" as="sourcePoint" />
            <mxPoint x="130" y="76" as="targetPoint" />
          </mxGeometry>
        </mxCell>
        <mxCell id="hh_eeiNxdKhzFimPqXk4-32" value="&lt;font style=&quot;font-size: 20px;&quot;&gt;Torch算子&lt;/font&gt;" style="rounded=0;whiteSpace=wrap;html=1;fillColor=#f9f7ed;strokeColor=#36393d;strokeWidth=2;" vertex="1" parent="1">
          <mxGeometry x="30" y="51" width="150" height="60" as="geometry" />
        </mxCell>
        <mxCell id="hh_eeiNxdKhzFimPqXk4-36" value="" style="endArrow=classic;startArrow=classic;html=1;rounded=0;strokeWidth=2;entryX=0.5;entryY=0;entryDx=0;entryDy=0;" edge="1" parent="1" target="hh_eeiNxdKhzFimPqXk4-37">
          <mxGeometry width="50" height="50" relative="1" as="geometry">
            <mxPoint x="599.88" y="294" as="sourcePoint" />
            <mxPoint x="599.88" y="334" as="targetPoint" />
          </mxGeometry>
        </mxCell>
        <mxCell id="hh_eeiNxdKhzFimPqXk4-37" value="&lt;font style=&quot;font-size: 20px;&quot;&gt;GPIO/I2C等&lt;/font&gt;" style="whiteSpace=wrap;html=1;strokeWidth=2;" vertex="1" parent="1">
          <mxGeometry x="540" y="336" width="120" height="60" as="geometry" />
        </mxCell>
        <mxCell id="hh_eeiNxdKhzFimPqXk4-40" value="" style="endArrow=none;html=1;rounded=0;strokeColor=light-dark(#99ff33, #babdc0);strokeWidth=2;fillColor=#cdeb8b;exitX=-0.001;exitY=0.545;exitDx=0;exitDy=0;exitPerimeter=0;" edge="1" parent="1" source="hh_eeiNxdKhzFimPqXk4-41">
          <mxGeometry width="50" height="50" relative="1" as="geometry">
            <mxPoint x="250" y="106" as="sourcePoint" />
            <mxPoint x="220" y="166" as="targetPoint" />
          </mxGeometry>
        </mxCell>
        <mxCell id="hh_eeiNxdKhzFimPqXk4-41" value="&lt;span style=&quot;font-size: 20px;&quot;&gt;空口AI算子&lt;/span&gt;" style="rounded=0;whiteSpace=wrap;html=1;fillColor=#f9f7ed;strokeColor=#36393d;strokeWidth=2;" vertex="1" parent="1">
          <mxGeometry x="255" y="50" width="150" height="60" as="geometry" />
        </mxCell>
      </root>
    </mxGraphModel>
  </diagram>
</mxfile>
